<svg xmlns="http://www.w3.org/2000/svg" viewBox="0 0 570.67 512"><title>Untitled-1</title><path d="M328.27,64.91c14.05-10.13,27.08-17.66,38.84-22.54,18.75-7.76,32.62-8.2,41.66-3S424.37,57,427.05,77.14c1.68,12.72,1.69,27.88,0,45.26l15.25,4.79q9.63,3,18.65,6.21C468.49,70.63,457.41,27.13,426.22,9S352.07,3,301.81,40.92q7.57,6.49,15.29,13.65ZM269,115.71a274.22,274.22,0,0,0-28.71-21.8c-20.51,15.92-48.88,32.44-73,42.54a276.68,276.68,0,0,0,4.49,35.91C203.65,160.43,243.15,137.43,269,115.71ZM97.9,198.64c-16.1,7.27-29.37,15-39.61,22.88C42.22,233.94,34.9,245.8,34.9,256.28s7.32,22.34,23.39,34.77C68.53,299,81.8,306.66,97.9,313.93l-3.35,15q-2.28,10.25-4.1,20C32.18,324.08,0,292.6,0,256.29s32.18-67.8,90.45-92.65q1.81,9.78,4.1,20Zm73.89,141.57c31.86,11.93,71.36,34.93,97.22,56.65a274.22,274.22,0,0,1-28.71,21.8c-20.51-15.92-48.88-32.44-73-42.54A276.46,276.46,0,0,1,171.79,340.21ZM328.27,447.66c14.06,10.13,27.08,17.66,38.84,22.53,18.75,7.77,32.62,8.21,41.66,3s15.6-17.54,18.28-37.73c1.68-12.72,1.69-27.89,0-45.26l15.25-4.79q9.63-3,18.65-6.21c7.56,62.77-3.52,106.26-34.71,124.36s-74.15,6-124.41-31.88q7.57-6.5,15.29-13.65Zm84.58-134.49c-5.82-33.7-5.82-80.07,0-113.78A281.5,281.5,0,0,1,446,213.23c-3.52,26.24-3.52,59.87,0,86.11A281.55,281.55,0,0,1,412.85,313.17Z" fill="#00c7b3" fill-rule="evenodd"/><path d="M437.37,147.61,419,141.85c-31.19-9.78-77.22-36.47-101.24-58.72L303.62,70C238,9.3,181.86-14,143.53,8.27S97.18,91,116.74,178.42L121,197.28c7.17,32,7.17,85.42,0,117.44l-4.21,18.86C97.18,421,105.2,481.5,143.53,503.73S238,502.7,303.62,442l14.15-13.1c24-22.25,70.05-48.94,101.24-58.72l18.36-5.76c85.16-26.7,133.3-63.93,133.3-108.39S522.52,174.31,437.37,147.61ZM202.71,41.53c21.87,9.06,48.08,27.29,77.18,54.24l14.16,13.11c27.84,25.78,78.42,55.12,114.56,66.46L427,181.1c37.78,11.85,66.6,25.55,85.34,40,16.11,12.46,23.44,24.35,23.44,34.86s-7.33,22.4-23.44,34.86c-18.74,14.49-47.56,28.19-85.34,40l-18.37,5.76c-36.14,11.33-86.72,40.68-114.56,66.46l-14.16,13.11c-29.1,26.95-55.31,45.18-77.18,54.24-18.79,7.79-32.7,8.23-41.76,3s-15.64-17.58-18.32-37.83c-3.13-23.56-.52-55.48,8.16-94.28L155,322.46c8.3-37.12,8.3-95.8,0-132.92l-4.22-18.87c-8.68-38.8-11.29-70.72-8.16-94.28,2.68-20.25,9.26-32.57,18.32-37.83S183.92,33.74,202.71,41.53Z" fill="#0086cb" fill-rule="evenodd"/><path d="M293,370.9c21.54-17.66,60-40.07,86-50l10.23-3.93L387.43,306c-4.4-27.63-4.4-72.44,0-100.08l1.74-10.89-10.23-3.93c-25.94-10-64.45-32.38-86-50l-8.49-7-8.49,7c-21.54,17.66-60,40.07-86,50l-10.23,3.93L181.49,206c4.4,27.63,4.4,72.44,0,100.08l-1.74,10.89L190,320.86c25.94,10,64.45,32.38,86,50l8.49,7Zm44.74-114.46c0,29.78-23.83,53.92-53.23,53.92s-53.23-24.14-53.23-53.92,23.83-53.92,53.23-53.92S337.69,226.66,337.69,256.44Z" fill="#00c7b3" fill-rule="evenodd"/></svg>